<svg id="SvgjsSvg1018" width="288" height="288" xmlns="http://www.w3.org/2000/svg" version="1.1" xmlns:xlink="http://www.w3.org/1999/xlink" xmlns:svgjs="http://svgjs.com/svgjs"><defs id="SvgjsDefs1019"></defs><g id="SvgjsG1020" transform="matrix(1,0,0,1,0,0)"><svg xmlns="http://www.w3.org/2000/svg" width="288" height="288" version="1" viewBox="0 0 32 32"><path fill="#457aa9" d="M 32,16 C 32,24.835821 24.835821,32 16,32 7.1641792,32 1e-7,24.835821 1e-7,16 1e-7,7.164179 7.1641792,-4.9999998e-8 16,-4.9999998e-8 24.835821,-4.9999998e-8 32,7.164179 32,16 l 0,0 z" class="color24c4bc svgShape"></path><path fill="#ffffff" d="m 14.009827,7.5800426 c -0.153089,0 -0.306179,0.2296352 -0.229634,0.3827252 0,0.1530902 0.153089,0.3061804 0.382725,0.2296353 0.07654,0 0.15309,0.076545 0.15309,0.1530901 0,0.076545 -0.07654,0.1530901 -0.15309,0.1530901 l -0.07654,0 -0.07654,0 c -0.382724,0.076545 -0.688904,0.3827255 -0.688904,0.7654508 0,0.3827252 0.382724,0.7654509 0.765449,0.7654509 l 0.07654,0 c 0.07654,0 0.15309,0.07655 0.15309,0.15309 0,0.07654 -0.07654,0.15309 -0.15309,0.15309 -0.153091,-0.07655 -0.382725,0.07655 -0.382725,0.306179 0,0.153091 0.229634,0.306181 0.382725,0.306181 0.382725,0 0.765451,-0.306181 0.765451,-0.76545 0,-0.3827255 -0.306181,-0.6889058 -0.688906,-0.7654508 l 0,0 -0.07654,0 -0.07654,0 c -0.07654,0 -0.153089,-0.076545 -0.153089,-0.1530901 0,-0.076545 0.07654,-0.1530902 0.153089,-0.1530902 l 0.07654,0 0,0 c 0.382725,0 0.765451,-0.3827254 0.765451,-0.7654507 0,-0.3827254 -0.306181,-0.7654506 -0.765451,-0.7654506 l -0.153091,0 0,0 0,0 z m 1.760537,0 c -0.153091,0 -0.30618,0.2296352 -0.229635,0.3827252 0,0.1530902 0.229635,0.3061804 0.382725,0.2296353 0.07654,0 0.153091,0.076545 0.153091,0.1530901 0,0.076545 -0.153091,0.1530901 -0.229636,0.1530901 l 0,0 0,0 0,0 0,0 -0.07654,0 c -0.382725,0.076545 -0.688906,0.3827255 -0.688906,0.7654508 0,0.3827252 0.382726,0.7654509 0.765451,0.7654509 l 0,0 0,0 c 0.07654,0 0.15309,0.07655 0.15309,0.15309 0,0.07654 -0.07654,0.15309 -0.15309,0.15309 -0.153092,-0.07655 -0.382727,0.07655 -0.382727,0.306179 0,0.153091 0.229635,0.306181 0.382725,0.306181 0.45927,0 0.765451,-0.306181 0.765451,-0.76545 0,-0.3827255 -0.306181,-0.6889058 -0.688906,-0.7654508 l 0,0 -0.07654,0 -0.07654,0 c -0.07654,0 -0.153091,-0.076545 -0.153091,-0.1530901 0,-0.076545 0.07654,-0.1530902 0.153091,-0.1530902 l 0,0 0,0 c 0.45927,0 0.765451,-0.3827254 0.765451,-0.7654507 0,-0.3827254 -0.306181,-0.7654506 -0.765451,-0.7654506 0.15309,0 0,0 0,0 l 0,0 0,0 z m 1.913627,0 c -0.153091,0 -0.306181,0.2296352 -0.229636,0.3827252 0.07654,0.1530902 0.229636,0.3061804 0.382725,0.2296353 0.07654,0 0.153091,0.076545 0.153091,0.1530901 0,0.076545 -0.07654,0.1530901 -0.153091,0.1530901 l 0,0 0,0 0,0 0,0 -0.07654,0 c -0.382726,0.076545 -0.688906,0.3827255 -0.688906,0.7654508 0,0.3827252 0.382725,0.7654509 0.76545,0.7654509 l 0,0 0.07654,0 c 0.07654,0 0.15309,0.07655 0.15309,0.15309 0,0.07654 -0.07654,0.15309 -0.15309,0.15309 -0.229635,-0.07655 -0.382726,0.07655 -0.382726,0.306179 0,0.153091 0.229636,0.306181 0.382726,0.306181 0.382726,0 0.765451,-0.306181 0.765451,-0.76545 0,-0.3827255 -0.306181,-0.6889058 -0.688906,-0.7654508 l 0,0 -0.07654,0 0,0 -0.07654,0 c -0.07654,0 -0.153089,-0.076545 -0.153089,-0.1530901 -0.153091,-0.076545 0,-0.1530902 0,-0.1530902 l 0,0 0,0 c 0.382725,0 0.765451,-0.3827254 0.765451,-0.7654507 0,-0.3827254 -0.306181,-0.7654506 -0.765451,-0.7654506 0,0 0,0 0,0 l 0,0 0,0 z m -3.674164,4.2865214 c -0.153089,0 -0.229634,0.153091 -0.229634,0.306181 l 0,0.612362 -3.367983,0 c -0.8419956,0 -1.454356,0.382725 -1.7605362,0.91854 -0.3061803,0.45927 -0.3827254,1.071631 -0.3827254,1.607447 0,0.15309 0.1530901,0.30618 0.3061803,0.30618 l 14.8497413,0 c 0.153091,0 0.306181,-0.15309 0.306181,-0.30618 0,-0.459271 0,-1.071631 -0.229636,-1.607447 -0.229634,-0.535815 -0.76545,-0.91854 -1.607446,-0.91854 l -3.750708,0 0,-0.612362 c 0,-0.15309 -0.15309,-0.306181 -0.306181,-0.306181 l -3.827253,0 0,0 0,0 z m -6.3532391,4.133435 c -0.6889056,0 -1.2247211,0.535816 -1.2247211,1.224722 0,0.688904 0.5358155,1.22472 1.2247211,1.22472 0.2296353,0 0.4592704,-0.07654 0.6123605,-0.15309 l 0,3.674163 c 0,1.377812 1.071631,2.449443 2.5259876,2.449443 l 10.410128,0 c 1.377811,0 2.525987,-1.148176 2.525987,-2.525988 l 0,-3.597618 c 0.15309,0.07654 0.382725,0.15309 0.612361,0.15309 0.688905,0 1.224721,-0.535816 1.224721,-1.22472 0,-0.688906 -0.535816,-1.224722 -1.224721,-1.224722 -0.382726,0 -0.765451,0.153091 -0.995086,0.459271 l -14.7731973,0 C 8.3454935,16.229634 7.9627681,15.999999 7.6565879,15.999999 l 0,0 0,0 z" class="colorfff svgShape"></path></svg></g></svg>