<svg width="56" height="42" viewBox="0 0 56 42" fill="none" xmlns="http://www.w3.org/2000/svg">
<g clip-path="url(#clip0_10_21)">
<path d="M32 20.5V0.5C32 0.367392 31.9473 0.240215 31.8536 0.146447C31.7598 0.0526784 31.6326 0 31.5 0L16 0C14.897 0 14 0.897 14 2V22C14 23.103 14.897 24 16 24H31.5C31.5904 24 31.6792 23.9754 31.7568 23.9289C31.8343 23.8824 31.8979 23.8157 31.9405 23.736C31.9832 23.6563 32.0035 23.5664 31.9992 23.4761C31.9948 23.3858 31.9661 23.2983 31.916 23.223C31.6745 22.8621 31.5454 22.4377 31.5448 22.0035C31.5443 21.5692 31.6724 21.1445 31.913 20.783C31.9699 20.6996 32.0002 20.601 32 20.5V20.5Z" fill="#303C42"/>
<path d="M30.705 23H16C15.7425 22.9885 15.4994 22.8781 15.3213 22.6918C15.1432 22.5055 15.0438 22.2577 15.0438 22C15.0438 21.7423 15.1432 21.4945 15.3213 21.3082C15.4994 21.1219 15.7425 21.0115 16 21H30.705C30.4902 21.6494 30.4902 22.3506 30.705 23V23Z" fill="#FAFAFA"/>
<path opacity="0.1" d="M15.5 22.5C15.5 21.949 15.948 21.5 16.5 21.5H30.584C30.6107 21.3303 30.6512 21.1631 30.705 21H16C15.8642 20.9388 15.7164 20.9089 15.5676 20.9122C15.4187 20.9156 15.2724 20.9523 15.1396 21.0195C15.0067 21.0868 14.8905 21.1829 14.7997 21.3009C14.7088 21.4189 14.6454 21.5557 14.6143 21.7013C14.5831 21.8469 14.585 21.9977 14.6197 22.1425C14.6544 22.2873 14.7211 22.4225 14.8148 22.5383C14.9086 22.654 15.027 22.7472 15.1615 22.8112C15.296 22.8752 15.4431 22.9082 15.592 22.908C15.5325 22.7801 15.5011 22.641 15.5 22.5V22.5Z" fill="black"/>
<path d="M31 20H16C15.636 20 15.294 20.098 15 20.269V2C15 1.449 15.448 1 16 1H31V20Z" fill="#FF8F00"/>
<path d="M19 11.49V14.5C19 15.327 19.673 16 20.5 16H25.5C26.327 16 27 15.327 27 14.5V11.49C27.623 11.02 28 10.282 28 9.5C28 7.97 26.565 6.776 25.041 7.065C24.8114 6.73663 24.506 6.4684 24.1507 6.28303C23.7954 6.09765 23.4007 6.00057 23 6C22.156 6 21.411 6.423 20.959 7.066C19.433 6.776 17.999 7.97 17.999 9.5C17.999 10.282 18.377 11.02 18.999 11.49H19Z" fill="#303C42"/>
<path d="M25.5 15H20.5C20.3674 15 20.2402 14.9473 20.1464 14.8536C20.0527 14.7598 20 14.6326 20 14.5V14H26V14.5C26 14.6326 25.9473 14.7598 25.8536 14.8536C25.7598 14.9473 25.6326 15 25.5 15ZM20.55 8.008C20.5171 8.16994 20.5004 8.33475 20.5 8.5C20.5 8.63261 20.5527 8.75979 20.6464 8.85355C20.7402 8.94732 20.8674 9 21 9C21.1326 9 21.2598 8.94732 21.3536 8.85355C21.4473 8.75979 21.5 8.63261 21.5 8.5C21.5 7.673 22.173 7 23 7C23.827 7 24.5 7.673 24.5 8.5C24.5 8.63261 24.5527 8.75979 24.6464 8.85355C24.7402 8.94732 24.8674 9 25 9C25.1326 9 25.2598 8.94732 25.3536 8.85355C25.4473 8.75979 25.5 8.63261 25.5 8.5C25.5 8.332 25.482 8.168 25.45 8.009C25.7841 7.99418 26.1134 8.09232 26.3848 8.28758C26.6563 8.48284 26.8541 8.76384 26.9463 9.08526C27.0385 9.40668 27.0197 9.74979 26.893 10.0593C26.7663 10.3687 26.5391 10.6265 26.248 10.791C26.1725 10.8351 26.1099 10.8981 26.0664 10.9739C26.0229 11.0497 26 11.1356 26 11.223V13H20V11.223C19.9999 11.1355 19.9769 11.0496 19.9332 10.9737C19.8895 10.8979 19.8267 10.8349 19.751 10.791C19.5228 10.6615 19.3331 10.4737 19.2011 10.2469C19.0692 10.0201 18.9998 9.76239 19 9.5C19 8.657 19.701 7.966 20.55 8.008Z" fill="#FAFAFA"/>
<path d="M27.601 8.173L27.592 8.181C27.842 8.564 28 9.011 28 9.5C28 10.282 27.623 11.02 27 11.49V14.5C27 15.327 26.327 16 25.5 16H20.5C20.139 16 19.812 15.867 19.553 15.653L23.899 20H31V11.571L27.602 8.173H27.601Z" fill="url(#paint0_linear_10_21)"/>
<path d="M32 20.5V0.5C32 0.367392 31.9473 0.240215 31.8536 0.146447C31.7598 0.0526784 31.6326 0 31.5 0L16 0C14.897 0 14 0.897 14 2V22C14 23.103 14.897 24 16 24H31.5C31.5904 24 31.6792 23.9754 31.7568 23.9289C31.8343 23.8824 31.8979 23.8157 31.9405 23.736C31.9832 23.6563 32.0035 23.5664 31.9992 23.4761C31.9948 23.3858 31.9661 23.2983 31.916 23.223C31.6745 22.8621 31.5454 22.4377 31.5448 22.0035C31.5443 21.5692 31.6724 21.1445 31.913 20.783C31.9699 20.6996 32.0002 20.601 32 20.5V20.5Z" fill="url(#paint1_linear_10_21)"/>
</g>
<path d="M5.19141 36.2871H6.26953C6.24219 36.873 6.12305 37.3789 5.91211 37.8047C5.70508 38.2266 5.40234 38.5508 5.00391 38.7773C4.60938 39.0039 4.11523 39.1172 3.52148 39.1172C3.0957 39.1172 2.71094 39.0332 2.36719 38.8652C2.02344 38.6973 1.72852 38.457 1.48242 38.1445C1.24023 37.8281 1.05469 37.4492 0.925781 37.0078C0.796875 36.5664 0.732422 36.0703 0.732422 35.5195V33.9434C0.732422 33.3965 0.796875 32.9023 0.925781 32.4609C1.05859 32.0195 1.24805 31.6426 1.49414 31.3301C1.74414 31.0137 2.04688 30.7715 2.40234 30.6035C2.76172 30.4355 3.16797 30.3516 3.62109 30.3516C4.17578 30.3516 4.64453 30.4629 5.02734 30.6855C5.41406 30.9043 5.71094 31.2266 5.91797 31.6523C6.12891 32.0742 6.24609 32.5918 6.26953 33.2051H5.19141C5.16406 32.7559 5.09375 32.3906 4.98047 32.1094C4.86719 31.8242 4.69922 31.6152 4.47656 31.4824C4.25781 31.3457 3.97266 31.2773 3.62109 31.2773C3.30859 31.2773 3.03711 31.3398 2.80664 31.4648C2.58008 31.5898 2.39258 31.7695 2.24414 32.0039C2.09961 32.2344 1.99023 32.5137 1.91602 32.8418C1.8457 33.166 1.81055 33.5293 1.81055 33.9316V35.5195C1.81055 35.8945 1.83984 36.2441 1.89844 36.5684C1.96094 36.8926 2.05859 37.1777 2.19141 37.4238C2.32812 37.666 2.50586 37.8555 2.72461 37.9922C2.94336 38.1289 3.20898 38.1973 3.52148 38.1973C3.91602 38.1973 4.22852 38.1328 4.45898 38.0039C4.68945 37.875 4.85938 37.6699 4.96875 37.3887C5.08203 37.1074 5.15625 36.7402 5.19141 36.2871ZM13.2773 33.9961V35.4785C13.2773 36.0801 13.2109 36.6094 13.0781 37.0664C12.9492 37.5195 12.7598 37.8984 12.5098 38.2031C12.2598 38.5078 11.959 38.7363 11.6074 38.8887C11.2559 39.041 10.8594 39.1172 10.418 39.1172C9.99219 39.1172 9.60352 39.041 9.25195 38.8887C8.90039 38.7363 8.59766 38.5078 8.34375 38.2031C8.08984 37.8984 7.89258 37.5195 7.75195 37.0664C7.61523 36.6094 7.54688 36.0801 7.54688 35.4785V33.9961C7.54688 33.3945 7.61523 32.8672 7.75195 32.4141C7.88867 31.957 8.08398 31.5762 8.33789 31.2715C8.5918 30.9668 8.89453 30.7383 9.24609 30.5859C9.59766 30.4297 9.98633 30.3516 10.4121 30.3516C10.8535 30.3516 11.25 30.4297 11.6016 30.5859C11.957 30.7383 12.2578 30.9668 12.5039 31.2715C12.7539 31.5762 12.9453 31.957 13.0781 32.4141C13.2109 32.8672 13.2773 33.3945 13.2773 33.9961ZM12.2109 35.4785V33.9844C12.2109 33.5156 12.1719 33.1133 12.0938 32.7773C12.0156 32.4375 11.9004 32.1602 11.748 31.9453C11.5957 31.7305 11.4082 31.5723 11.1855 31.4707C10.9629 31.3652 10.7051 31.3125 10.4121 31.3125C10.1348 31.3125 9.88477 31.3652 9.66211 31.4707C9.44336 31.5723 9.25586 31.7305 9.09961 31.9453C8.94336 32.1602 8.82227 32.4375 8.73633 32.7773C8.6543 33.1133 8.61328 33.5156 8.61328 33.9844V35.4785C8.61328 35.9512 8.6543 36.3574 8.73633 36.6973C8.82227 37.0332 8.94336 37.3105 9.09961 37.5293C9.25977 37.7441 9.45117 37.9043 9.67383 38.0098C9.89648 38.1113 10.1445 38.1621 10.418 38.1621C10.7109 38.1621 10.9688 38.1113 11.1914 38.0098C11.418 37.9043 11.6055 37.7441 11.7539 37.5293C11.9062 37.3105 12.0195 37.0332 12.0938 36.6973C12.1719 36.3574 12.2109 35.9512 12.2109 35.4785ZM20.4961 33.9961V35.4785C20.4961 36.0801 20.4297 36.6094 20.2969 37.0664C20.168 37.5195 19.9785 37.8984 19.7285 38.2031C19.4785 38.5078 19.1777 38.7363 18.8262 38.8887C18.4746 39.041 18.0781 39.1172 17.6367 39.1172C17.2109 39.1172 16.8223 39.041 16.4707 38.8887C16.1191 38.7363 15.8164 38.5078 15.5625 38.2031C15.3086 37.8984 15.1113 37.5195 14.9707 37.0664C14.834 36.6094 14.7656 36.0801 14.7656 35.4785V33.9961C14.7656 33.3945 14.834 32.8672 14.9707 32.4141C15.1074 31.957 15.3027 31.5762 15.5566 31.2715C15.8105 30.9668 16.1133 30.7383 16.4648 30.5859C16.8164 30.4297 17.2051 30.3516 17.6309 30.3516C18.0723 30.3516 18.4688 30.4297 18.8203 30.5859C19.1758 30.7383 19.4766 30.9668 19.7227 31.2715C19.9727 31.5762 20.1641 31.957 20.2969 32.4141C20.4297 32.8672 20.4961 33.3945 20.4961 33.9961ZM19.4297 35.4785V33.9844C19.4297 33.5156 19.3906 33.1133 19.3125 32.7773C19.2344 32.4375 19.1191 32.1602 18.9668 31.9453C18.8145 31.7305 18.627 31.5723 18.4043 31.4707C18.1816 31.3652 17.9238 31.3125 17.6309 31.3125C17.3535 31.3125 17.1035 31.3652 16.8809 31.4707C16.6621 31.5723 16.4746 31.7305 16.3184 31.9453C16.1621 32.1602 16.041 32.4375 15.9551 32.7773C15.873 33.1133 15.832 33.5156 15.832 33.9844V35.4785C15.832 35.9512 15.873 36.3574 15.9551 36.6973C16.041 37.0332 16.1621 37.3105 16.3184 37.5293C16.4785 37.7441 16.6699 37.9043 16.8926 38.0098C17.1152 38.1113 17.3633 38.1621 17.6367 38.1621C17.9297 38.1621 18.1875 38.1113 18.4102 38.0098C18.6367 37.9043 18.8242 37.7441 18.9727 37.5293C19.125 37.3105 19.2383 37.0332 19.3125 36.6973C19.3906 36.3574 19.4297 35.9512 19.4297 35.4785ZM23.2441 30.4688V39H22.166V30.4688H23.2441ZM27.5332 30.4688L24.5977 34.4473L22.8809 36.5156L22.6875 35.3086L23.9473 33.6562L26.2441 30.4688H27.5332ZM26.4609 39L23.9473 34.8398L24.5859 33.9434L27.7441 39H26.4609ZM31.3008 35.0098H29.5664L29.5547 34.1016H31.166C31.4082 34.1016 31.623 34.0469 31.8105 33.9375C31.998 33.8281 32.1445 33.6719 32.25 33.4688C32.3594 33.2617 32.4141 33.0156 32.4141 32.7305C32.4141 32.418 32.3672 32.1641 32.2734 31.9688C32.1836 31.7695 32.0449 31.625 31.8574 31.5352C31.6738 31.4414 31.4395 31.3945 31.1543 31.3945H29.7949V39H28.7168V30.4688H31.1543C31.5215 30.4688 31.8496 30.5137 32.1387 30.6035C32.4277 30.6895 32.6719 30.8262 32.8711 31.0137C33.0742 31.1973 33.2285 31.4316 33.334 31.7168C33.4395 32.002 33.4922 32.3438 33.4922 32.7422C33.4922 33.0938 33.4121 33.4121 33.252 33.6973C33.0957 33.9785 32.877 34.209 32.5957 34.3887C32.3145 34.5684 31.9902 34.6836 31.623 34.7344L31.3008 35.0098ZM31.2598 39H29.1211L29.748 38.0801H31.2598C31.541 38.0801 31.7793 38.0176 31.9746 37.8926C32.1699 37.7676 32.3184 37.5918 32.4199 37.3652C32.5254 37.1348 32.5781 36.8633 32.5781 36.5508C32.5781 36.2344 32.5352 35.9609 32.4492 35.7305C32.3633 35.5 32.2266 35.3223 32.0391 35.1973C31.8516 35.0723 31.6055 35.0098 31.3008 35.0098H29.9121L29.9238 34.1016H31.7988L32.0391 34.4297C32.3906 34.4648 32.6855 34.582 32.9238 34.7812C33.166 34.9766 33.3477 35.2266 33.4688 35.5312C33.5938 35.8359 33.6562 36.1719 33.6562 36.5391C33.6562 37.0703 33.5566 37.5195 33.3574 37.8867C33.1621 38.25 32.8848 38.5273 32.5254 38.7188C32.166 38.9062 31.7441 39 31.2598 39ZM40.8164 33.9961V35.4785C40.8164 36.0801 40.75 36.6094 40.6172 37.0664C40.4883 37.5195 40.2988 37.8984 40.0488 38.2031C39.7988 38.5078 39.498 38.7363 39.1465 38.8887C38.7949 39.041 38.3984 39.1172 37.957 39.1172C37.5312 39.1172 37.1426 39.041 36.791 38.8887C36.4395 38.7363 36.1367 38.5078 35.8828 38.2031C35.6289 37.8984 35.4316 37.5195 35.291 37.0664C35.1543 36.6094 35.0859 36.0801 35.0859 35.4785V33.9961C35.0859 33.3945 35.1543 32.8672 35.291 32.4141C35.4277 31.957 35.623 31.5762 35.877 31.2715C36.1309 30.9668 36.4336 30.7383 36.7852 30.5859C37.1367 30.4297 37.5254 30.3516 37.9512 30.3516C38.3926 30.3516 38.7891 30.4297 39.1406 30.5859C39.4961 30.7383 39.7969 30.9668 40.043 31.2715C40.293 31.5762 40.4844 31.957 40.6172 32.4141C40.75 32.8672 40.8164 33.3945 40.8164 33.9961ZM39.75 35.4785V33.9844C39.75 33.5156 39.7109 33.1133 39.6328 32.7773C39.5547 32.4375 39.4395 32.1602 39.2871 31.9453C39.1348 31.7305 38.9473 31.5723 38.7246 31.4707C38.502 31.3652 38.2441 31.3125 37.9512 31.3125C37.6738 31.3125 37.4238 31.3652 37.2012 31.4707C36.9824 31.5723 36.7949 31.7305 36.6387 31.9453C36.4824 32.1602 36.3613 32.4375 36.2754 32.7773C36.1934 33.1133 36.1523 33.5156 36.1523 33.9844V35.4785C36.1523 35.9512 36.1934 36.3574 36.2754 36.6973C36.3613 37.0332 36.4824 37.3105 36.6387 37.5293C36.7988 37.7441 36.9902 37.9043 37.2129 38.0098C37.4355 38.1113 37.6836 38.1621 37.957 38.1621C38.25 38.1621 38.5078 38.1113 38.7305 38.0098C38.957 37.9043 39.1445 37.7441 39.293 37.5293C39.4453 37.3105 39.5586 37.0332 39.6328 36.6973C39.7109 36.3574 39.75 35.9512 39.75 35.4785ZM48.0352 33.9961V35.4785C48.0352 36.0801 47.9688 36.6094 47.8359 37.0664C47.707 37.5195 47.5176 37.8984 47.2676 38.2031C47.0176 38.5078 46.7168 38.7363 46.3652 38.8887C46.0137 39.041 45.6172 39.1172 45.1758 39.1172C44.75 39.1172 44.3613 39.041 44.0098 38.8887C43.6582 38.7363 43.3555 38.5078 43.1016 38.2031C42.8477 37.8984 42.6504 37.5195 42.5098 37.0664C42.373 36.6094 42.3047 36.0801 42.3047 35.4785V33.9961C42.3047 33.3945 42.373 32.8672 42.5098 32.4141C42.6465 31.957 42.8418 31.5762 43.0957 31.2715C43.3496 30.9668 43.6523 30.7383 44.0039 30.5859C44.3555 30.4297 44.7441 30.3516 45.1699 30.3516C45.6113 30.3516 46.0078 30.4297 46.3594 30.5859C46.7148 30.7383 47.0156 30.9668 47.2617 31.2715C47.5117 31.5762 47.7031 31.957 47.8359 32.4141C47.9688 32.8672 48.0352 33.3945 48.0352 33.9961ZM46.9688 35.4785V33.9844C46.9688 33.5156 46.9297 33.1133 46.8516 32.7773C46.7734 32.4375 46.6582 32.1602 46.5059 31.9453C46.3535 31.7305 46.166 31.5723 45.9434 31.4707C45.7207 31.3652 45.4629 31.3125 45.1699 31.3125C44.8926 31.3125 44.6426 31.3652 44.4199 31.4707C44.2012 31.5723 44.0137 31.7305 43.8574 31.9453C43.7012 32.1602 43.5801 32.4375 43.4941 32.7773C43.4121 33.1133 43.3711 33.5156 43.3711 33.9844V35.4785C43.3711 35.9512 43.4121 36.3574 43.4941 36.6973C43.5801 37.0332 43.7012 37.3105 43.8574 37.5293C44.0176 37.7441 44.209 37.9043 44.4316 38.0098C44.6543 38.1113 44.9023 38.1621 45.1758 38.1621C45.4688 38.1621 45.7266 38.1113 45.9492 38.0098C46.1758 37.9043 46.3633 37.7441 46.5117 37.5293C46.6641 37.3105 46.7773 37.0332 46.8516 36.6973C46.9297 36.3574 46.9688 35.9512 46.9688 35.4785ZM50.7832 30.4688V39H49.7051V30.4688H50.7832ZM55.0723 30.4688L52.1367 34.4473L50.4199 36.5156L50.2266 35.3086L51.4863 33.6562L53.7832 30.4688H55.0723ZM54 39L51.4863 34.8398L52.125 33.9434L55.2832 39H54Z" fill="#FF0505"/>
<defs>
<linearGradient id="paint0_linear_10_21" x1="23.435" y1="11.771" x2="31.332" y2="19.668" gradientUnits="userSpaceOnUse">
<stop stop-opacity="0.1"/>
<stop offset="1" stop-opacity="0"/>
</linearGradient>
<linearGradient id="paint1_linear_10_21" x1="11.712" y1="6.464" x2="34.944" y2="17.297" gradientUnits="userSpaceOnUse">
<stop stop-color="white" stop-opacity="0.2"/>
<stop offset="1" stop-color="white" stop-opacity="0"/>
</linearGradient>
<clipPath id="clip0_10_21">
<rect width="24" height="24" fill="white" transform="translate(11)"/>
</clipPath>
</defs>
</svg>
